{"glyphs":{"0":{"ha":1022,"x_min":49,"x_max":1098,"o":"m 1081 701 q 844 700 982 680 q 868 572 868 644 q 838 413 868 492 q 631 137 783 261 q 291 -1 464 -1 q 263 0 277 -1 q 100 79 157 8 q 49 244 49 144 q 74 384 49 313 q 238 633 122 520 q 479 779 353 743 q 492 781 485 781 q 526 757 526 781 q 512 745 526 748 q 288 638 396 717 q 105 415 161 545 q 67 246 67 330 q 108 99 67 158 q 238 18 153 34 q 290 13 263 13 q 556 119 422 13 q 761 377 687 221 q 819 611 819 498 q 805 707 819 664 q 697 737 741 718 q 623 805 623 769 q 665 832 623 832 q 722 820 690 832 q 834 722 796 794 q 1079 715 959 699 q 1098 710 1098 718 q 1081 701 1098 704 m 796 729 q 735 799 774 775 q 688 817 707 817 q 669 803 669 817 q 726 753 669 777 q 796 729 755 740 z "},"1":{"ha":533,"x_min":-2,"x_max":498,"o":"m 494 824 q 496 810 494 819 q 498 799 498 802 q 462 764 498 785 q 197 439 325 686 q 82 52 74 200 q 56 17 83 37 q 12 -3 29 -3 q 0 7 0 -3 q 141 392 -2 134 q 427 789 281 645 q 308 758 363 758 q 260 775 272 758 q 268 794 246 794 q 290 785 278 794 q 326 776 301 776 q 451 817 390 776 q 483 833 470 833 q 494 824 493 833 z "},"2":{"ha":867,"x_min":-88,"x_max":815,"o":"m 808 128 q 492 21 676 21 q 229 81 360 21 q 105 120 166 109 q -38 34 23 65 q -74 35 -63 21 q -88 69 -88 51 q -41 123 -88 102 q 90 143 9 147 q 621 545 379 321 q 709 701 709 627 q 638 803 709 777 q 557 817 604 817 q 402 788 482 817 q 294 725 325 761 q 289 723 292 723 q 269 745 269 723 q 274 754 269 751 q 396 802 320 781 q 578 830 491 830 q 684 817 635 830 q 769 724 769 796 q 663 549 769 646 q 135 139 445 348 q 228 120 184 133 q 377 79 303 100 q 551 55 474 55 q 800 138 694 55 q 811 139 807 143 q 808 128 815 134 m 401 -403 l 364 -403 l 401 -403 m 60 125 q -32 113 3 128 q -67 74 -67 98 q -60 55 -67 64 q 60 125 1 89 m 401 -403 z "},"3":{"ha":923,"x_min":-49,"x_max":834,"o":"m 776 602 q 746 571 776 602 q 608 489 717 539 q 768 316 768 439 q 753 243 768 282 q 585 64 709 132 q 259 -8 450 -10 q -39 95 64 -4 q -41 107 -49 105 q -27 103 -33 110 q 288 10 80 3 q 537 70 430 16 q 696 230 653 128 q 714 306 714 270 q 560 468 714 420 q 359 425 449 425 q 289 432 325 425 q 238 456 238 440 q 403 507 238 491 q 574 498 493 515 q 704 592 652 538 q 779 733 779 670 q 635 822 779 826 q 361 722 494 818 q 351 718 356 718 q 332 738 332 718 q 339 749 332 745 q 635 832 482 828 q 771 805 713 834 q 834 718 834 773 q 776 602 834 666 m 527 477 q 384 489 460 491 q 295 477 335 487 q 255 457 255 468 q 305 439 255 446 q 344 437 324 437 q 527 477 432 437 z "},"4":{"ha":917,"x_min":39,"x_max":796,"o":"m 789 304 q 784 269 796 284 q 753 255 773 255 q 741 255 747 255 q 506 244 676 266 q 448 34 471 143 q 425 10 446 22 q 386 -1 403 -1 q 373 9 373 -1 q 375 14 373 11 q 469 239 420 136 q 429 233 447 236 q 229 215 318 215 q 46 275 70 215 q 39 310 39 291 q 310 627 39 443 q 716 818 590 818 q 788 786 767 818 q 788 777 793 780 q 777 781 782 773 q 718 807 759 807 q 563 752 660 807 q 197 500 347 629 q 56 319 52 374 q 209 251 62 251 q 401 268 284 251 l 489 281 q 715 663 571 448 q 766 711 733 711 q 772 709 770 711 q 782 690 782 696 q 745 646 782 682 q 521 286 608 511 q 717 306 673 306 q 768 320 769 306 q 770 349 766 349 q 771 348 770 349 q 789 304 776 345 z "},"5":{"ha":920,"x_min":0,"x_max":967,"o":"m 959 863 q 735 787 858 787 q 694 789 715 787 q 471 805 504 805 q 341 777 385 805 q 329 771 333 771 q 327 775 325 772 q 333 784 328 779 q 530 834 393 834 q 665 826 589 834 q 775 819 729 819 q 953 869 887 819 q 963 871 959 874 q 959 863 967 868 m 745 370 q 599 108 750 223 q 281 -2 454 -2 q 239 0 259 -2 q 54 72 117 12 q 0 205 0 125 q 1 223 0 214 q 12 242 2 242 q 17 227 19 242 q 15 202 15 215 q 64 84 15 133 q 250 16 125 24 q 277 14 263 14 q 565 122 441 14 q 686 355 686 226 q 629 482 686 436 q 491 524 576 524 q 223 422 357 524 q 217 421 221 421 q 196 442 196 421 q 204 459 196 451 q 376 735 376 665 q 374 745 376 740 q 371 752 371 750 q 380 768 371 758 q 397 777 389 777 q 411 761 411 777 q 267 471 411 735 q 521 548 388 548 q 676 505 617 548 q 745 370 742 457 z "},"6":{"ha":815,"x_min":0,"x_max":744,"o":"m 736 834 q 299 633 500 780 q 52 240 52 451 q 286 18 52 33 q 312 18 299 18 q 557 113 456 18 q 650 313 650 202 q 619 416 650 371 q 457 492 571 492 q 239 381 323 492 q 201 273 201 331 q 236 183 201 217 q 240 175 240 179 q 236 169 240 170 q 225 174 230 168 q 183 274 183 214 q 229 397 183 339 q 348 488 272 453 q 500 523 424 523 q 654 462 600 523 q 707 323 707 399 q 583 101 707 201 q 299 0 456 0 q 73 70 154 0 q 0 240 0 135 q 268 639 0 452 q 729 841 490 795 q 743 839 741 843 q 736 834 744 836 z "},"7":{"ha":735,"x_min":105,"x_max":735,"o":"m 710 767 q 380 488 528 688 q 207 33 219 268 q 188 8 206 20 q 153 -3 170 -3 q 132 20 128 -3 q 352 498 174 278 q 696 774 508 691 q 703 783 705 778 q 688 789 701 788 q 506 803 600 803 q 271 782 386 803 q 157 752 184 766 q 138 729 142 745 q 132 716 136 716 q 124 720 130 716 q 105 762 105 730 q 118 784 105 781 q 471 832 260 832 q 709 815 633 832 q 735 794 735 810 q 710 767 735 778 z "},"8":{"ha":972,"x_min":0,"x_max":939,"o":"m 923 657 q 939 654 939 659 q 919 644 939 648 q 777 618 845 632 q 684 562 739 570 q 655 569 668 559 q 642 587 643 577 q 393 509 503 551 q 464 489 424 496 q 745 293 745 433 q 742 257 745 276 q 611 93 725 172 q 279 -3 473 -3 q 79 51 157 -3 q 0 192 0 105 q 28 294 0 241 q 323 514 92 420 q 266 619 266 558 q 388 781 266 719 q 598 832 489 832 q 760 792 701 832 q 811 699 817 754 q 790 638 807 668 q 923 657 857 649 m 771 711 q 728 786 771 757 q 596 819 680 819 q 418 782 497 819 q 304 665 327 739 q 298 625 298 644 q 357 528 298 566 q 733 628 515 587 q 771 711 771 661 m 676 230 q 687 289 687 262 q 614 398 687 354 q 418 470 556 433 q 355 494 384 479 q 37 236 81 379 q 28 183 28 208 q 107 56 28 103 q 277 14 177 14 q 551 84 439 14 q 676 230 646 144 z "},"9":{"ha":781,"x_min":-16,"x_max":725,"o":"m 712 720 q 725 710 725 718 q 699 656 725 699 q 563 397 631 526 q 356 130 464 218 q 172 31 279 69 q 0 -7 81 -1 q -16 -1 -16 -7 q 2 7 -16 5 q 165 50 72 10 q 306 130 245 85 q 474 316 405 204 q 591 540 478 323 q 424 392 521 449 q 209 324 318 327 q 85 361 138 322 q 28 479 28 405 q 29 502 28 490 q 169 729 45 629 q 450 831 297 831 q 498 828 474 831 q 600 736 600 816 q 542 639 600 680 q 529 638 532 632 q 533 649 526 644 q 582 732 582 688 q 489 812 582 801 q 449 815 469 815 q 202 714 314 815 q 87 528 105 625 q 83 492 83 509 q 128 386 83 426 q 231 349 170 349 q 251 350 241 349 q 521 489 401 367 q 656 687 604 574 q 712 720 673 722 z "}," ":{"ha":516,"x_min":0,"x_max":0,"o":""},"!":{"ha":447,"x_min":136,"x_max":455,"o":"m 447 752 q 220 197 375 443 q 211 189 216 191 q 206 193 206 188 q 210 201 206 196 q 398 798 325 379 q 418 833 404 833 q 435 826 425 833 q 455 795 455 811 q 447 752 455 787 m 196 44 q 211 23 211 33 q 194 4 211 12 q 167 -3 180 -3 q 136 43 136 -3 q 139 75 136 58 q 150 85 141 84 q 163 79 158 86 q 196 44 172 67 z "},"\"":{"ha":337,"x_min":-8,"x_max":249,"o":"m 232 683 q 249 633 249 666 q 158 477 249 563 q 143 471 149 468 q 146 482 138 474 q 221 607 221 551 q 192 635 221 639 q 178 634 184 634 q 162 643 162 634 q 183 680 162 654 q 207 692 192 691 q 232 683 222 693 m 86 683 q 102 633 102 666 q 12 477 102 563 q -3 471 3 468 q 0 482 -8 474 q 74 607 74 551 q 46 635 74 639 q 32 634 38 634 q 16 643 16 634 q 37 680 16 654 q 61 692 45 691 q 86 683 76 693 z "},"#":{"ha":462,"x_min":-1,"x_max":397,"o":"m 388 581 q 397 577 397 581 q 386 570 397 570 l 293 561 q 242 449 270 508 q 347 456 273 451 q 358 452 358 456 q 346 445 358 445 l 235 433 q 165 287 196 351 q 155 277 160 277 q 155 289 149 277 q 217 432 191 367 l 101 421 q 37 287 65 342 q 27 277 33 277 q 27 289 22 277 q 84 420 60 360 q 61 418 70 418 q 24 415 7 416 q 0 435 5 416 q -1 444 -1 441 q 34 450 -1 453 q 94 445 54 448 q 131 545 115 498 q 101 544 116 544 q 64 540 48 541 q 40 561 45 541 q 39 569 39 566 q 74 575 39 578 q 139 570 96 573 q 158 639 149 604 q 186 695 174 695 q 201 688 193 695 q 212 670 212 678 q 189 616 212 668 l 169 570 q 268 574 203 570 q 286 640 277 607 q 314 695 302 695 q 329 688 320 695 q 340 670 340 678 q 317 616 340 668 l 299 575 q 388 581 333 577 m 263 558 l 159 547 q 113 445 138 499 q 223 448 149 444 q 263 558 246 506 z "},"$":{"ha":841,"x_min":0,"x_max":763,"o":"m 760 706 q 737 690 763 695 q 706 695 711 686 q 581 749 678 746 q 473 479 515 587 q 641 392 591 431 q 690 303 690 352 q 681 254 690 281 q 572 150 661 196 q 335 93 471 98 l 320 48 q 307 14 312 22 q 282 -1 300 3 q 274 -3 278 -3 q 268 3 268 -3 q 285 46 268 7 q 304 92 291 60 q 286 92 285 92 q 225 97 255 93 l 209 48 q 196 14 200 22 q 171 -1 189 3 q 163 -3 166 -3 q 157 3 157 -3 q 174 46 157 7 q 196 101 181 63 q 55 157 109 116 q 0 247 0 197 q 84 366 0 315 q 231 415 155 409 q 238 408 234 411 q 230 400 237 401 q 109 361 158 392 q 45 258 45 322 q 83 177 45 213 q 204 120 125 137 q 359 509 294 339 q 358 509 359 509 q 212 624 212 562 q 277 699 212 665 q 447 748 342 733 q 471 820 461 789 q 490 832 475 832 q 500 825 500 832 q 498 820 499 823 l 471 752 q 562 762 517 759 q 582 820 574 793 q 602 832 586 832 q 611 825 611 832 q 610 820 610 823 l 586 762 q 760 706 743 764 m 559 749 q 466 741 514 748 q 377 515 414 612 q 460 484 424 498 q 559 749 519 634 m 443 737 q 442 737 443 737 q 296 689 350 721 q 242 619 242 657 q 363 521 242 564 q 443 737 409 640 m 623 234 q 636 290 636 263 q 468 464 636 383 q 341 109 395 274 q 623 234 562 114 m 455 470 q 372 504 418 487 q 231 115 290 292 q 310 109 269 110 q 455 470 394 310 z "},"%":{"ha":1128,"x_min":0,"x_max":1018,"o":"m 970 462 q 976 454 976 461 q 967 449 976 448 q 876 458 913 458 q 760 433 810 458 q 589 182 589 348 q 598 120 589 149 q 646 52 610 79 q 733 24 684 24 q 806 41 769 24 q 921 148 883 77 q 951 278 955 210 q 915 362 949 333 q 838 388 885 389 q 830 394 834 391 q 837 401 830 401 q 851 402 843 402 q 939 364 906 402 q 969 272 969 328 q 936 138 969 201 q 813 22 894 61 q 715 -1 765 -1 q 621 24 662 -1 q 564 89 580 48 q 552 157 552 119 q 596 309 552 236 q 752 447 649 396 q 874 473 807 473 q 970 462 915 473 m 1006 814 q 621 554 810 718 q 204 61 377 341 q 172 13 180 22 q 129 -3 156 -3 q 105 7 105 -3 q 153 79 105 17 q 930 794 535 575 q 940 803 940 800 q 887 798 940 811 q 877 802 878 796 q 885 808 877 807 q 1005 832 1006 832 q 1018 826 1018 832 q 1006 814 1018 820 m 507 769 q 392 760 453 760 q 416 671 416 721 q 414 636 416 654 q 332 498 401 561 q 159 428 255 428 q 139 429 149 428 q 33 481 71 435 q 0 583 0 523 q 50 722 0 657 q 173 807 101 788 q 179 809 176 809 q 206 795 206 809 q 201 791 206 792 q 94 739 142 778 q 22 631 39 694 q 15 577 15 603 q 124 444 15 462 q 155 442 139 442 q 286 490 226 442 q 369 612 346 538 q 379 680 379 647 q 360 762 379 727 q 295 775 321 765 q 248 816 248 791 q 273 832 248 832 q 300 828 285 832 q 382 774 351 813 q 504 777 442 769 q 513 776 509 777 q 515 773 516 775 q 507 769 513 771 m 350 778 q 309 811 333 800 q 282 819 292 819 q 273 814 273 819 q 309 788 273 802 q 350 778 326 783 z "},"&":{"ha":1179,"x_min":0,"x_max":1152,"o":"m 1139 360 q 1152 358 1152 362 q 1132 348 1152 352 q 955 331 1039 328 q 715 128 861 223 q 989 50 839 58 q 1009 53 997 50 q 1026 57 1022 57 q 1053 37 1041 57 q 1058 24 1058 29 q 1005 5 1058 5 q 960 7 986 5 q 675 103 806 20 q 593 58 633 79 q 299 -14 451 -14 q 87 38 170 -14 q 0 180 0 92 q 7 230 0 204 q 167 401 35 333 q 416 491 243 441 q 412 545 412 519 q 513 773 412 682 q 707 853 602 853 q 767 843 741 853 q 818 763 818 822 q 769 651 818 707 q 605 538 712 585 q 447 481 562 520 q 538 284 467 378 q 698 138 604 195 q 931 332 843 228 q 836 371 853 339 q 830 394 830 382 q 856 452 830 423 q 917 493 881 480 q 976 505 948 505 q 1034 466 1034 505 q 968 346 1034 426 q 1139 360 1050 341 m 1000 456 q 956 486 1000 486 q 917 479 938 486 q 868 449 890 471 q 845 402 845 426 q 851 380 845 391 q 943 348 867 356 q 1000 456 1000 421 m 734 820 q 675 831 706 831 q 515 752 585 831 q 441 549 441 668 q 444 500 441 525 q 533 528 502 517 q 718 644 655 575 q 771 756 771 701 q 734 820 771 805 m 659 114 q 431 427 494 227 q 420 471 424 447 q 187 371 262 417 q 56 210 75 302 q 54 180 54 194 q 123 54 54 105 q 308 3 195 3 q 580 72 437 3 q 659 114 617 90 z "},"'":{"ha":196,"x_min":-8,"x_max":102,"o":"m 86 683 q 102 633 102 666 q 12 477 102 563 q -3 471 3 468 q 0 482 -8 474 q 74 607 74 551 q 46 635 74 639 q 32 634 38 634 q 16 643 16 634 q 37 680 16 654 q 61 692 45 691 q 86 683 76 693 z "},"(":{"ha":827,"x_min":0,"x_max":769,"o":"m 768 761 q 760 746 769 754 q 743 737 751 737 q 735 743 737 737 q 715 772 731 759 q 666 786 695 789 q 336 608 510 773 q 97 252 164 445 q 44 -32 44 100 q 111 -270 44 -182 q 304 -361 180 -361 q 345 -358 324 -361 q 351 -362 350 -358 q 346 -367 352 -367 q 289 -373 317 -373 q 82 -278 161 -373 q 0 -23 0 -183 q 51 241 0 100 q 331 633 132 464 q 689 801 522 795 q 748 786 725 802 q 768 761 766 775 z "},")":{"ha":673,"x_min":-197,"x_max":572,"o":"m 521 187 q 241 -206 439 -37 q -117 -373 50 -368 q -177 -359 -153 -375 q -196 -333 -194 -347 q -188 -318 -197 -326 q -171 -310 -179 -310 q -164 -316 -165 -310 q -143 -344 -160 -331 q -94 -359 -123 -361 q 236 -181 62 -346 q 475 175 407 -18 q 528 460 528 327 q 461 697 528 609 q 267 788 392 788 q 227 786 248 788 q 221 790 222 785 q 225 795 219 794 q 283 800 255 800 q 490 706 411 800 q 572 450 572 610 q 521 187 572 327 z "},"*":{"ha":449,"x_min":-1,"x_max":390,"o":"m 388 578 q 343 551 390 569 q 204 499 227 508 q 340 424 267 449 q 353 415 353 420 q 329 383 353 408 q 324 381 327 381 q 284 411 316 381 q 197 490 226 466 q 175 322 174 402 q 170 304 175 307 q 134 304 162 300 q 130 310 130 304 q 147 370 130 321 q 188 492 174 446 q 30 399 101 454 q 15 390 19 390 q 0 422 7 390 q 45 448 -1 430 q 184 500 160 490 q 50 573 122 549 q 37 582 37 578 q 62 615 37 590 q 66 616 64 616 q 106 586 75 616 q 193 508 164 532 q 214 673 216 595 q 219 691 213 688 q 255 691 226 695 q 259 684 259 690 q 242 627 259 674 q 203 508 216 551 q 358 600 289 547 q 373 609 369 609 q 388 578 382 609 z "},"+":{"ha":532,"x_min":-1,"x_max":470,"o":"m 457 174 l 238 155 q 123 -89 183 34 q 113 -100 119 -98 q 107 -96 107 -102 q 110 -86 107 -92 q 211 153 172 49 l 202 153 q 80 145 121 146 q 28 141 13 143 q 0 174 6 144 q -1 186 -1 181 q 12 199 -1 199 q 46 194 14 199 q 221 179 153 179 q 273 354 247 254 q 299 395 284 395 q 317 386 306 395 q 329 365 329 376 q 303 301 329 363 q 249 179 288 268 q 455 186 318 180 q 470 181 470 187 q 457 174 470 175 z "},",":{"ha":256,"x_min":22,"x_max":132,"o":"m 117 50 q 132 3 132 35 q 39 -155 132 -68 q 22 -158 22 -170 q 26 -151 22 -155 q 103 -24 103 -79 q 76 3 103 7 q 62 2 67 2 q 46 10 46 2 q 68 48 46 21 q 92 60 77 59 q 117 50 107 61 z "},"-":{"ha":565,"x_min":-1,"x_max":470,"o":"m 457 174 l 106 146 q 80 145 93 145 q 28 141 13 143 q 0 174 6 144 q -1 186 -1 181 q 12 199 -1 199 q 46 194 14 199 q 223 179 153 179 q 455 186 297 179 q 470 181 470 187 q 457 174 470 175 z "},".":{"ha":309,"x_min":62,"x_max":151,"o":"m 151 -5 q 145 -16 151 -12 q 132 -15 138 -20 q 87 1 119 -4 q 62 19 62 5 q 81 48 62 31 q 104 59 93 59 q 136 35 120 59 q 151 -5 151 12 z "},"/":{"ha":794,"x_min":0,"x_max":807,"o":"m 796 817 q 94 61 354 564 q 65 13 73 22 q 24 -3 51 -3 q 0 7 0 -3 q 40 79 0 18 q 336 465 200 317 q 783 832 538 686 q 798 836 791 836 q 807 830 807 836 q 796 817 807 824 z "},":":{"ha":316,"x_min":67,"x_max":215,"o":"m 215 232 q 208 221 215 225 q 196 221 202 217 q 151 238 183 232 q 126 255 126 241 q 144 285 126 268 q 168 296 157 296 q 200 271 184 296 q 215 232 215 249 m 156 18 q 149 7 156 10 q 137 7 142 3 q 92 23 124 18 q 67 41 67 27 q 85 71 67 54 q 109 82 98 82 q 141 57 124 82 q 156 18 156 35 z "},";":{"ha":278,"x_min":-5,"x_max":170,"o":"m 170 232 q 163 221 170 225 q 151 221 156 217 q 106 238 138 232 q 81 255 81 241 q 99 285 81 268 q 123 296 111 296 q 155 271 139 296 q 170 232 170 249 m 90 71 q 106 24 106 55 q 12 -134 106 -47 q -5 -138 -5 -150 q 0 -130 -5 -134 q 77 -3 77 -59 q 50 24 77 28 q 36 22 41 22 q 20 31 20 22 q 42 69 20 41 q 65 81 50 80 q 90 71 81 81 z "},"<":{"ha":598,"x_min":0,"x_max":531,"o":"m 517 681 l 78 357 q 62 344 62 346 q 64 325 58 340 q 286 0 132 141 q 290 -9 290 -4 q 274 -22 290 -22 q 266 -18 269 -22 q 43 254 174 93 q 0 325 0 308 q 3 342 0 334 q 28 392 20 381 q 69 418 37 402 q 194 483 186 477 q 513 694 281 534 q 528 701 524 701 q 531 699 531 701 q 517 681 531 692 z "},"=":{"ha":594,"x_min":-1,"x_max":546,"o":"m 533 293 l 181 266 q 155 265 168 265 q 104 261 88 263 q 76 294 82 264 q 75 306 75 301 q 88 319 75 319 q 122 314 89 319 q 299 299 229 299 q 530 306 373 299 q 546 301 546 306 q 533 293 546 295 m 457 61 l 105 33 q 80 32 92 32 q 28 28 13 30 q 0 62 6 31 q -1 73 -1 68 q 12 86 -1 86 q 46 82 14 86 q 223 66 153 66 q 455 73 297 66 q 470 68 470 74 q 457 61 470 62 z "},">":{"ha":574,"x_min":-14,"x_max":518,"o":"m 513 338 q 490 292 498 300 q 453 270 486 287 q 314 203 384 237 q 4 -14 212 145 q -11 -22 -7 -22 q -14 -20 -14 -22 q 0 -1 -14 -12 q 439 323 186 145 q 456 336 455 335 q 453 355 459 341 q 231 680 391 498 q 227 689 227 684 q 242 701 227 701 q 251 697 248 701 q 481 412 331 565 q 518 358 518 374 q 513 338 518 348 z "},"?":{"ha":775,"x_min":95,"x_max":697,"o":"m 695 724 q 600 594 691 656 q 413 487 506 540 q 262 350 299 419 q 243 284 243 314 q 297 229 243 232 q 373 249 333 227 q 380 251 377 251 q 384 249 382 250 q 374 239 382 246 q 268 204 320 198 q 213 271 213 212 q 231 336 213 303 q 373 475 270 408 q 538 579 455 527 q 624 709 619 640 q 578 779 627 753 q 454 803 530 803 q 266 766 357 803 q 109 651 164 725 q 100 645 103 643 q 100 654 95 647 q 273 787 163 742 q 477 826 369 826 q 634 797 570 826 q 695 724 697 768 m 218 44 q 233 23 233 33 q 216 4 233 12 q 189 -3 202 -3 q 158 43 158 -3 q 162 75 158 58 q 172 85 164 84 q 185 79 180 86 q 218 44 194 67 z "},"@":{"ha":1262,"x_min":46,"x_max":1066,"o":"m 1049 240 q 915 35 1015 119 q 724 -48 822 -43 q 641 -28 674 -51 q 607 31 607 -5 q 614 62 607 46 q 408 -50 513 -50 q 386 -48 397 -50 q 311 -3 339 -42 q 289 71 286 32 q 454 311 302 207 q 700 396 591 405 q 765 374 739 393 q 791 324 791 354 q 788 305 791 315 q 775 297 787 301 q 754 293 764 293 q 744 300 743 293 q 748 328 748 316 q 664 380 748 385 q 471 284 574 375 q 354 69 360 183 q 400 -26 349 -5 q 428 -31 413 -31 q 712 206 536 -31 q 749 217 720 217 q 769 210 769 217 q 767 206 769 208 q 673 24 673 113 q 708 -32 673 -27 q 726 -33 716 -33 q 872 25 797 -33 q 1009 215 961 94 q 1037 358 1037 287 q 962 551 1037 477 q 727 631 879 632 q 296 447 489 629 q 100 26 100 261 q 186 -194 100 -113 q 449 -282 278 -282 q 536 -276 490 -282 q 740 -215 640 -264 q 879 -115 834 -170 q 891 -111 886 -106 q 890 -123 897 -115 q 550 -291 764 -256 q 442 -300 496 -300 q 168 -222 273 -300 q 56 43 46 -131 q 269 456 71 273 q 750 643 479 647 q 980 563 894 640 q 1066 358 1066 487 q 1049 240 1066 301 z "},"A":{"ha":1741,"x_min":-10,"x_max":1580,"o":"m 1221 0 q 1106 88 1106 0 q 1300 424 1106 200 q 1346 479 1322 449 q 1242 485 1297 487 q 1017 467 1137 481 q 575 162 750 250 q 281 41 403 77 q 8 0 158 6 q -10 7 -10 -1 q 0 25 -10 14 q 41 40 16 43 q 103 36 71 36 q 604 195 304 36 q 989 464 755 275 q 484 347 640 419 q 479 346 481 346 q 469 360 469 346 q 482 381 469 378 q 1011 481 827 457 q 1267 694 1139 588 q 1440 824 1395 800 q 1505 841 1473 841 q 1570 781 1575 841 q 1395 482 1562 708 q 1533 403 1483 457 q 1580 291 1580 352 q 1452 88 1580 183 q 1221 0 1332 0 m 1462 819 q 1299 703 1422 804 q 1038 485 1169 593 q 1254 500 1159 499 q 1356 490 1306 500 q 1539 791 1539 713 q 1502 827 1539 827 q 1462 819 1484 827 m 1559 297 q 1514 398 1557 352 q 1386 470 1467 447 q 1347 418 1365 442 q 1171 90 1171 187 q 1253 24 1171 24 q 1458 116 1354 24 q 1559 297 1562 207 z "},"B":{"ha":1225,"x_min":-9,"x_max":1126,"o":"m 563 -2 q 515 0 539 -2 q 319 120 319 16 q 335 178 319 149 q 500 280 380 255 q 513 278 513 283 q 480 265 513 274 q 356 183 391 236 q 342 138 342 161 q 426 38 342 74 q 565 10 491 10 q 801 62 686 10 q 974 218 932 121 q 991 296 991 258 q 834 475 991 418 q 544 424 690 417 q 523 425 533 424 q 14 22 242 115 q 9 22 11 22 q -9 42 -9 22 q 0 56 -9 52 q 507 427 232 145 q 453 458 453 435 q 496 495 453 482 q 585 512 535 507 q 734 745 734 683 q 733 754 734 750 q 735 764 731 760 q 748 766 739 767 q 762 754 765 764 q 600 513 741 684 q 841 495 726 525 q 1029 630 953 545 q 1073 724 1073 679 q 974 812 1073 794 q 919 817 949 817 q 727 776 824 817 q 604 686 629 736 q 574 663 595 667 q 562 666 565 661 q 562 676 561 669 q 674 764 574 711 q 935 828 799 828 q 1030 819 983 828 q 1126 735 1126 802 q 1044 605 1126 676 q 865 489 963 534 q 1046 310 1046 434 q 866 77 1046 172 q 563 -2 714 -2 m 812 483 q 661 504 743 504 q 589 500 625 504 q 534 437 562 469 q 551 436 543 437 q 812 483 682 432 m 572 498 q 519 488 545 494 q 476 461 476 479 q 519 439 476 445 q 572 498 547 469 z "},"C":{"ha":1037,"x_min":0,"x_max":1080,"o":"m 1067 644 q 1042 634 1055 634 q 1029 647 1031 634 q 967 694 1023 681 q 881 580 949 627 q 727 525 802 525 q 662 541 687 525 q 637 581 637 557 q 675 640 637 612 q 920 713 769 713 q 945 712 933 713 q 948 731 948 722 q 789 822 948 822 q 729 819 762 822 q 387 695 566 802 q 93 382 170 566 q 67 267 67 321 q 158 94 67 161 q 369 25 241 33 q 424 23 396 23 q 736 69 581 23 q 1030 221 915 122 q 1042 220 1042 232 q 1037 212 1042 217 q 718 45 919 102 q 366 0 541 -6 q 94 82 193 6 q 0 260 0 153 q 31 380 0 320 q 335 681 116 543 q 736 833 548 815 q 790 836 765 836 q 970 724 970 836 q 969 710 970 717 q 1065 670 1039 701 q 1067 644 1080 654 m 941 698 q 904 700 923 700 q 693 640 773 700 q 657 589 657 613 q 724 551 657 551 q 862 602 794 551 q 941 698 923 648 z "},"D":{"ha":1219,"x_min":-16,"x_max":1113,"o":"m 1000 756 q 1113 498 1113 661 q 957 170 1113 304 q 521 -1 760 -1 q 130 141 293 -1 q 9 56 36 54 q -16 69 -16 58 q 0 87 -16 78 q 105 165 54 117 q 23 276 54 217 q 23 289 18 286 q 33 282 28 291 q 117 176 67 225 q 179 243 145 204 q 475 728 475 574 q 471 760 475 746 q 481 798 464 784 q 517 801 508 820 q 521 779 521 792 q 455 589 521 720 q 818 828 643 828 q 1000 756 913 828 m 951 205 q 1060 485 1060 323 q 944 732 1060 652 q 786 785 868 785 q 430 542 606 785 q 323 369 411 507 q 141 153 248 254 q 521 14 303 14 q 951 205 775 14 m 98 134 q 92 130 96 132 q 98 134 94 131 z "},"E":{"ha":989,"x_min":0,"x_max":994,"o":"m 989 212 q 416 0 748 -8 q 94 72 201 5 q 0 223 0 130 q 8 277 0 249 q 238 497 44 402 q 212 554 212 523 q 213 573 212 564 q 403 756 240 678 q 701 832 547 824 q 751 834 727 834 q 946 748 946 834 q 943 727 946 738 q 907 710 938 710 q 895 715 895 710 q 901 729 895 716 q 906 754 906 743 q 751 825 906 825 q 692 822 723 825 q 401 725 523 807 q 278 565 294 651 q 283 517 272 539 q 515 574 402 566 q 544 574 530 574 q 655 529 655 574 q 493 447 655 473 q 420 441 456 441 q 255 483 315 441 q 68 237 68 380 q 146 90 68 151 q 387 16 232 24 q 437 15 413 15 q 981 221 740 15 q 989 224 985 225 q 994 220 994 223 q 989 212 994 217 m 551 470 q 629 525 629 495 q 599 555 629 544 q 518 562 566 566 q 292 502 408 556 q 439 454 331 454 q 551 470 499 454 z "},"F":{"ha":941,"x_min":0,"x_max":1142,"o":"m 1140 813 q 1087 789 1121 789 q 1052 796 1069 789 q 884 817 989 817 q 716 792 786 817 q 298 485 470 703 q 671 541 525 541 q 774 529 737 541 q 803 496 803 520 q 659 386 803 433 q 646 384 648 382 q 664 394 650 389 q 786 489 786 436 q 754 517 786 513 q 691 522 728 522 q 272 450 516 522 q 96 45 144 272 q 40 -36 83 -22 q 14 -41 23 -41 q 0 -25 0 -41 q 16 39 0 -8 q 232 437 86 248 q 171 411 184 421 q 168 411 170 411 q 153 430 153 411 q 177 452 153 445 q 262 475 216 464 q 719 815 462 718 q 513 779 635 808 q 348 715 372 745 q 341 696 344 710 q 325 681 339 687 q 308 677 315 677 q 293 690 293 677 q 310 718 293 703 q 409 762 335 737 q 692 821 525 801 q 989 842 865 842 q 1142 817 1142 842 q 1140 813 1141 815 z "},"G":{"ha":1102,"x_min":0,"x_max":1097,"o":"m 1086 202 q 807 49 967 100 q 520 -8 710 19 q 310 -214 398 -155 q 158 -266 231 -266 q 75 -240 105 -266 q 54 -193 54 -222 q 215 -48 54 -104 q 497 9 315 -13 q 602 163 511 29 q 362 132 481 132 q 105 183 205 132 q 0 331 0 238 q 51 467 0 394 q 415 742 168 635 q 828 838 636 838 q 906 832 872 838 q 1030 732 1030 811 q 1013 672 1030 703 q 987 663 1008 663 q 973 671 973 663 q 978 680 973 674 q 1002 737 1002 709 q 965 799 1002 774 q 862 828 927 825 q 468 739 699 836 q 108 473 211 630 q 66 352 66 409 q 164 206 66 261 q 405 153 259 153 q 615 182 509 153 q 727 326 682 280 q 943 452 850 452 q 985 420 985 452 q 970 377 985 402 q 671 183 896 259 q 538 14 628 128 q 808 64 713 35 q 1077 211 957 110 q 1093 219 1086 219 q 1097 216 1097 219 q 1086 202 1097 211 m 948 375 q 965 418 965 400 q 946 437 965 437 q 786 325 899 437 q 686 204 755 294 q 948 375 881 271 m 481 -14 q 253 -60 335 -35 q 119 -128 168 -87 q 76 -199 76 -165 q 90 -230 76 -218 q 157 -253 115 -253 q 288 -211 223 -253 q 481 -14 378 -152 z "},"H":{"ha":1376,"x_min":0,"x_max":1437,"o":"m 1409 789 q 1120 513 1270 725 q 936 56 949 275 q 1367 221 1208 67 q 1374 224 1370 225 q 1380 220 1380 223 q 1375 212 1380 217 q 936 42 1215 56 q 936 8 935 24 q 908 -10 936 -10 q 868 29 873 -10 q 865 41 867 31 q 400 144 636 46 q 284 208 337 171 q 69 -2 185 100 q 31 -12 58 -12 q 0 1 0 -12 q 13 16 0 7 q 266 220 152 109 q 153 380 153 305 q 257 454 153 447 q 439 426 343 460 q 532 659 532 564 q 481 760 532 724 q 365 790 435 790 q 71 682 218 790 q 60 676 64 676 q 57 680 58 678 q 64 689 58 684 q 406 819 236 819 q 572 738 544 819 q 577 702 577 722 q 454 420 577 600 q 894 65 676 335 q 1127 556 944 329 q 1403 798 1270 733 q 1434 809 1425 809 q 1437 807 1437 809 q 1409 789 1437 802 m 862 55 q 808 137 852 86 q 447 410 636 337 q 304 230 386 323 q 435 153 360 185 q 862 55 652 63 m 432 415 q 259 439 337 448 q 208 384 208 433 q 289 244 208 318 q 432 415 373 329 z "},"I":{"ha":568,"x_min":-1,"x_max":573,"o":"m 568 212 q 143 -2 320 -2 q 105 0 124 -2 q 0 106 -1 12 q 285 613 1 255 q 229 600 254 605 q 216 603 216 599 q 227 610 216 608 q 295 625 260 616 q 461 807 409 768 q 524 831 494 831 q 559 801 559 831 q 487 704 559 760 q 314 621 421 654 q 136 331 207 475 q 60 83 54 166 q 130 15 65 29 q 159 12 143 12 q 340 67 232 12 q 561 221 453 124 q 568 224 563 225 q 573 219 573 223 q 568 212 573 216 m 477 714 q 534 800 534 763 q 515 820 534 820 q 467 796 495 820 q 323 635 408 748 q 477 714 422 668 z "},"J":{"ha":977,"x_min":0,"x_max":954,"o":"m 951 832 q 909 650 954 788 q 798 391 858 497 q 586 136 712 242 q 259 0 424 0 q 71 52 144 0 q 0 175 0 101 q 39 276 0 227 q 334 394 128 394 q 623 301 515 394 q 623 295 627 298 q 615 295 620 291 q 355 377 507 377 q 192 346 265 377 q 81 259 116 314 q 60 191 60 226 q 127 73 60 121 q 294 28 196 22 q 770 373 566 44 q 865 610 830 470 q 893 784 893 718 q 891 800 893 795 q 914 820 890 804 q 948 836 938 836 q 951 832 951 836 z "},"K":{"ha":1217,"x_min":0,"x_max":1216,"o":"m 1211 206 q 781 -1 980 -1 q 613 63 682 -1 q 515 212 560 113 q 445 381 480 297 q 389 376 416 377 q 260 392 322 373 q 46 21 157 235 q 24 3 37 3 q 0 30 0 3 q 1 37 0 34 q 232 402 118 246 q 132 470 170 427 q 97 545 97 509 q 105 574 97 561 q 193 613 131 613 q 351 553 270 613 q 608 773 488 709 q 712 809 646 792 q 723 799 723 811 q 705 777 723 777 q 367 541 559 781 q 482 398 435 485 q 818 565 651 436 q 1016 813 986 693 q 1044 826 1020 826 q 1061 817 1061 826 q 1059 811 1060 814 q 850 572 999 693 q 487 388 673 427 q 581 160 534 274 q 755 14 649 22 q 784 12 769 12 q 1203 215 987 12 q 1211 218 1206 219 q 1216 213 1216 217 q 1211 206 1215 210 m 441 390 q 352 521 405 470 q 267 402 310 468 q 405 387 331 383 q 441 390 421 388 m 337 536 q 191 599 264 599 q 111 542 111 599 q 144 473 111 508 q 238 411 179 434 q 337 536 289 479 z "},"L":{"ha":1278,"x_min":0,"x_max":1272,"o":"m 1268 206 q 703 -1 1027 -1 q 657 0 680 -1 q 449 45 564 5 q 267 107 273 105 q 92 18 172 22 q 0 58 0 12 q 33 104 0 83 q 131 134 71 128 q 265 128 191 139 q 433 362 336 202 q 592 623 591 621 q 507 629 544 621 q 498 635 498 632 q 512 638 498 642 q 599 634 547 629 q 756 805 686 763 q 824 827 793 827 q 872 785 872 827 q 815 696 872 743 q 648 630 758 650 q 481 368 519 423 q 286 124 373 208 q 509 68 301 121 q 755 31 652 32 q 1260 215 1046 28 q 1268 218 1263 219 q 1272 213 1272 217 q 1268 206 1272 211 m 811 710 q 857 784 857 749 q 820 818 857 818 q 763 792 793 818 q 655 643 733 766 q 811 710 759 665 m 249 111 q 128 122 185 126 q 43 99 76 119 q 14 60 14 81 q 71 27 14 28 q 249 111 158 25 z "},"M":{"ha":1794,"x_min":-10,"x_max":1794,"o":"m 1789 206 q 1562 62 1683 111 q 1373 20 1459 20 q 1295 33 1323 20 q 1233 129 1233 64 q 1324 359 1233 197 q 1437 600 1424 535 q 1439 625 1439 614 q 1386 678 1439 678 q 1294 654 1350 678 q 1029 466 1181 606 q 729 106 853 304 q 698 41 718 88 q 675 10 686 10 q 667 12 671 10 q 640 41 640 29 q 652 66 640 50 q 887 426 817 302 q 967 647 974 580 q 900 716 961 716 q 690 614 826 716 q 467 406 619 561 q 286 210 328 265 q 184 59 231 141 q 139 11 158 14 q 104 7 117 7 q 84 16 84 7 q 101 44 84 24 q 380 386 278 244 q 509 684 509 565 q 472 766 509 742 q 386 786 441 786 q 189 741 299 786 q 0 625 77 694 q -7 621 -4 621 q -9 627 -10 621 q 0 638 -6 633 q 215 770 96 722 q 417 815 325 815 q 541 773 506 815 q 561 710 561 748 q 480 504 561 636 q 363 327 422 416 q 541 498 523 481 q 733 663 659 609 q 944 758 860 758 q 1016 686 1016 758 q 1003 618 1016 657 q 784 234 974 534 q 1079 528 931 403 q 1311 684 1218 644 q 1425 710 1373 710 q 1500 652 1502 710 q 1382 410 1498 602 q 1266 145 1266 218 q 1321 67 1266 87 q 1399 56 1353 56 q 1585 94 1487 56 q 1780 215 1697 137 q 1788 218 1784 219 q 1794 213 1794 217 q 1789 206 1793 210 z "},"N":{"ha":1428,"x_min":-7,"x_max":1423,"o":"m 1418 204 q 1152 44 1291 98 q 946 -1 1038 -1 q 900 3 920 -1 q 800 130 800 22 q 1103 741 800 329 q 677 512 968 709 q 312 227 413 333 q 181 70 282 194 q 92 -18 111 -15 q 76 -20 83 -20 q 52 -3 52 -20 q 77 40 52 20 q 483 623 483 373 q 470 701 483 667 q 316 781 437 781 q 8 662 155 781 q -3 660 1 657 q 0 669 -7 664 q 354 803 177 803 q 523 731 483 803 q 539 665 539 703 q 338 276 539 532 q 775 588 522 430 q 1097 767 993 726 q 1149 782 1134 782 q 1167 767 1167 782 q 1145 735 1167 752 q 1103 701 1111 709 q 926 429 995 575 q 857 178 857 283 q 991 34 857 34 q 1185 79 1075 34 q 1410 213 1306 128 q 1418 215 1413 216 q 1423 212 1423 215 q 1418 204 1422 208 z "},"O":{"ha":1219,"x_min":0,"x_max":1124,"o":"m 1122 540 q 1048 309 1124 433 q 820 83 963 171 q 445 -30 653 -22 q 111 79 237 -39 q 0 325 0 183 q 6 381 0 354 q 34 406 10 402 q 47 400 46 408 q 44 386 47 398 q 32 298 32 341 q 141 73 32 161 q 416 -16 251 -16 q 466 -14 441 -16 q 866 153 691 6 q 1057 532 1057 313 q 985 741 1057 657 q 739 841 898 841 q 709 841 724 841 q 378 708 525 830 q 202 460 248 600 q 185 356 185 405 q 343 139 185 191 q 350 130 351 136 q 337 126 349 123 q 217 203 264 145 q 165 356 165 267 q 178 447 165 400 q 348 712 219 597 q 716 863 502 851 q 751 864 734 864 q 1025 767 923 864 q 1122 540 1120 678 z "},"P":{"ha":1090,"x_min":-20,"x_max":1090,"o":"m 987 441 q 833 340 927 376 q 656 306 746 306 q 506 342 564 306 q 443 447 443 380 q 453 504 443 474 q 464 513 456 513 q 470 498 474 513 q 462 451 462 473 q 510 363 462 394 q 627 335 554 335 q 798 370 711 335 q 951 473 891 408 q 1048 680 1048 577 q 1002 789 1048 748 q 867 833 953 833 q 754 817 815 833 q 391 526 547 762 q 80 45 256 318 q 12 -35 29 -35 q 3 -31 7 -35 q -20 7 -20 -10 q 0 38 -20 23 q 204 278 77 98 q 409 744 409 569 q 408 769 409 757 q 401 792 406 781 q 397 806 397 802 q 403 823 397 813 q 416 833 410 833 q 432 768 432 833 q 320 440 432 651 q 756 832 507 767 q 868 847 815 847 q 1031 794 970 847 q 1090 660 1090 742 q 987 441 1090 550 z "},"Q":{"ha":1511,"x_min":0,"x_max":1511,"o":"m 1506 209 q 1250 35 1364 82 q 1039 0 1155 -4 q 870 57 963 3 q 454 -60 670 -52 q 126 17 258 -66 q 0 212 0 96 q 5 255 0 234 q 95 384 24 335 q 276 435 170 435 q 369 424 327 435 q 576 712 399 582 q 945 841 752 841 q 1058 827 1005 841 q 1201 733 1151 802 q 1249 575 1249 667 q 1165 320 1249 450 q 886 66 1067 170 q 1045 15 971 18 q 1498 218 1268 3 q 1506 221 1501 221 q 1511 216 1511 220 q 1506 209 1510 213 m 1121 321 q 1196 558 1196 434 q 1155 712 1196 646 q 1033 809 1113 781 q 934 825 989 825 q 594 705 764 825 q 388 418 415 579 q 547 326 458 394 q 705 197 576 304 q 868 312 812 233 q 922 454 922 386 q 904 509 922 500 q 898 523 898 512 q 913 551 898 551 q 918 548 916 551 q 948 464 948 521 q 881 297 948 384 q 717 187 824 224 q 868 77 806 113 q 1121 321 1024 172 m 686 191 q 536 306 583 273 q 384 386 452 363 q 385 344 383 363 q 452 217 392 261 q 591 177 507 177 q 686 191 637 177 m 853 67 q 698 181 795 103 q 587 164 642 164 q 442 206 500 164 q 366 344 377 253 q 365 392 363 367 q 276 404 323 404 q 131 369 196 404 q 39 274 67 334 q 24 207 24 242 q 136 28 24 103 q 452 -48 259 -54 q 853 67 666 -41 z "},"R":{"ha":1329,"x_min":0,"x_max":1329,"o":"m 1324 206 q 866 0 1082 -10 q 676 111 749 5 q 592 293 641 160 q 558 378 575 337 q 435 397 493 379 q 113 57 278 203 q 18 -8 39 -8 q 0 12 0 -8 q 56 67 0 35 q 425 401 226 161 q 287 513 333 433 q 269 574 269 544 q 296 635 269 611 q 362 659 323 659 q 395 655 378 659 q 528 535 470 634 q 646 763 610 653 q 605 743 623 752 q 563 689 565 721 q 538 671 562 671 q 528 682 528 671 q 612 759 528 716 q 651 778 629 768 q 658 808 658 803 q 653 822 658 815 q 648 831 648 829 q 656 841 648 836 q 671 847 665 847 q 680 815 686 847 q 672 787 677 803 q 921 848 812 848 q 1046 816 1001 848 q 1091 727 1091 783 q 1080 669 1091 700 q 902 484 1046 574 q 600 379 752 391 q 627 308 615 343 q 708 120 676 169 q 872 14 771 20 q 897 13 885 13 q 1316 215 1100 13 q 1324 218 1319 219 q 1329 213 1329 217 q 1324 206 1328 210 m 1019 647 q 1033 710 1033 679 q 996 794 1033 762 q 883 829 955 829 q 667 773 792 829 q 534 525 629 662 q 596 392 563 472 q 855 485 724 405 q 1019 647 983 564 m 553 390 q 506 487 529 444 q 443 405 484 457 q 553 390 495 390 m 500 496 q 376 633 436 610 q 343 639 358 639 q 282 570 282 639 q 302 508 282 538 q 431 409 352 434 q 500 496 470 455 z "},"S":{"ha":1261,"x_min":-9,"x_max":1241,"o":"m 1227 779 q 1241 767 1241 777 q 1232 753 1241 760 q 1217 748 1224 746 q 1132 763 1174 759 q 1116 721 1132 742 q 973 650 1066 650 q 912 685 912 650 q 981 750 912 722 q 1080 777 1027 769 q 884 836 1044 836 q 735 822 813 836 q 520 750 600 796 q 439 653 439 704 q 580 536 439 585 q 931 393 841 445 q 1041 253 1041 329 q 1032 202 1041 230 q 865 58 1005 119 q 458 -10 699 -14 q 122 62 257 -7 q 1 210 -9 127 q 124 345 10 289 q 331 400 221 393 q 342 396 337 398 q 332 391 342 392 q 138 337 215 380 q 50 225 58 291 q 126 96 42 158 q 382 9 221 24 q 490 3 436 3 q 788 50 658 3 q 963 177 920 98 q 980 237 980 208 q 588 518 980 380 q 424 652 424 576 q 541 773 424 716 q 813 846 654 828 q 921 852 870 852 q 1130 783 1103 852 q 1227 779 1183 786 m 1086 764 q 944 712 988 759 q 932 689 932 699 q 972 665 932 665 q 1069 713 1027 665 q 1086 764 1091 739 z "},"T":{"ha":912,"x_min":-9,"x_max":1111,"o":"m 1032 721 q 992 708 1032 721 q 767 710 953 695 q 574 403 664 599 q 344 74 468 175 q 14 -29 209 -37 q -9 1 -9 -29 q 0 10 -9 10 q 327 110 194 9 q 536 378 437 194 q 752 712 663 614 q 528 736 735 713 q 327 751 397 751 q 269 748 295 751 q 131 703 184 739 q 73 603 73 664 q 75 581 73 593 q 125 515 83 540 q 219 492 166 492 q 360 552 312 492 q 363 553 361 553 q 380 536 380 553 q 377 528 380 532 q 230 477 316 477 q 122 504 170 477 q 63 575 75 531 q 58 607 58 590 q 117 724 58 674 q 304 790 185 783 q 348 791 325 791 q 562 771 432 791 q 777 737 773 738 q 929 841 849 809 q 1014 859 974 859 q 1084 840 1058 859 q 1111 796 1111 822 q 1032 721 1111 748 m 987 735 q 1090 801 1090 750 q 1014 846 1090 846 q 883 806 953 846 q 792 736 837 779 q 987 735 908 723 z "},"U":{"ha":1456,"x_min":-7,"x_max":1456,"o":"m 1450 209 q 1034 21 1224 21 q 966 30 995 21 q 872 171 872 60 q 1010 525 872 313 q 718 188 870 325 q 401 5 543 30 q 335 -2 365 -2 q 207 101 207 -2 q 242 217 207 152 q 430 488 284 293 q 535 690 535 628 q 531 716 535 703 q 436 768 515 768 q 224 712 354 768 q 8 593 105 662 q -3 591 0 587 q 0 600 -7 595 q 251 739 115 686 q 479 790 382 790 q 595 745 568 790 q 605 709 605 729 q 482 513 605 652 q 284 258 328 341 q 246 135 246 185 q 358 48 246 48 q 438 58 393 48 q 792 280 602 91 q 1126 722 969 455 q 1175 790 1167 790 q 1196 770 1183 790 q 1204 750 1204 761 q 1160 684 1204 729 q 973 437 1045 562 q 895 205 895 301 q 1003 60 895 94 q 1061 51 1027 51 q 1443 218 1238 51 q 1450 220 1446 221 q 1456 216 1456 219 q 1450 209 1455 213 z "},"V":{"ha":1205,"x_min":-6,"x_max":1360,"o":"m 1359 788 q 1096 472 1286 608 q 680 244 972 383 q 495 130 564 189 q 425 26 426 71 q 405 6 425 14 q 368 -2 387 -2 q 348 9 347 -2 q 377 77 352 40 q 427 141 402 109 q 636 589 636 418 q 555 739 636 695 q 399 773 493 773 q 191 733 297 773 q 9 623 81 692 q -1 621 3 617 q 0 629 -6 624 q 221 760 94 714 q 441 802 334 802 q 585 771 532 802 q 670 621 670 723 q 419 101 670 447 q 721 281 493 167 q 1069 481 967 403 q 1281 781 1244 614 q 1331 806 1287 806 q 1360 792 1360 806 q 1359 788 1359 790 z "},"W":{"ha":1733,"x_min":-9,"x_max":1963,"o":"m 1953 809 q 1963 805 1962 810 q 1952 799 1963 801 q 1479 580 1667 756 q 1245 35 1260 373 q 1226 0 1244 0 q 1209 5 1219 0 q 1063 134 1123 46 q 991 369 991 238 q 1076 659 991 508 q 737 369 963 548 q 315 62 496 179 q 194 -2 215 -2 q 175 16 175 -2 q 194 40 175 24 q 251 86 245 81 q 517 399 411 225 q 617 674 617 564 q 579 762 617 737 q 509 778 555 778 q 268 720 416 778 q 9 580 121 661 q -9 578 -9 568 q 0 589 -9 583 q 300 750 148 691 q 542 804 441 804 q 650 771 619 804 q 675 697 675 745 q 526 367 675 578 q 267 79 394 179 q 1060 666 743 365 q 1108 703 1098 703 q 1119 699 1114 703 q 1130 676 1127 694 q 1126 646 1134 657 q 1019 346 1019 488 q 1182 41 1019 159 q 1502 623 1232 415 q 1953 809 1700 776 z "},"X":{"ha":1624,"x_min":0,"x_max":1510,"o":"m 1509 703 q 1503 695 1510 696 q 1496 701 1498 693 q 1390 774 1486 779 q 854 453 1265 768 q 814 210 814 287 q 913 45 814 73 q 973 36 942 36 q 1262 172 1117 36 q 1486 561 1423 322 q 1494 569 1488 570 q 1498 561 1500 569 q 1304 182 1450 349 q 962 -3 1143 -3 q 870 10 915 -3 q 769 169 769 40 q 820 426 769 253 l 779 395 q 445 149 551 215 q 21 -60 276 43 q 10 -62 15 -62 q 0 -50 0 -62 q 10 -23 0 -37 q 33 -4 20 -8 q 759 396 364 82 l 826 450 q 883 697 883 638 q 852 772 883 752 q 775 792 821 792 q 585 729 688 792 q 448 597 486 668 q 439 557 445 590 q 411 526 437 539 q 390 521 399 521 q 373 536 373 521 q 382 562 373 547 q 562 737 440 665 q 777 805 678 805 q 872 774 839 805 q 898 691 898 749 q 860 476 898 633 q 1352 790 1232 769 q 1395 794 1375 794 q 1509 703 1500 794 z "},"Y":{"ha":1270,"x_min":-5,"x_max":1197,"o":"m 1195 634 q 1197 623 1197 629 q 1156 554 1197 597 q 866 194 1008 399 q 659 -259 659 -102 q 674 -332 659 -301 q 676 -336 676 -333 q 655 -364 676 -348 q 619 -380 634 -380 q 607 -371 609 -380 q 600 -318 600 -347 q 782 108 600 -166 q 1120 551 888 267 q 765 251 969 377 q 427 125 560 125 q 322 164 357 125 q 303 221 303 187 q 495 496 303 333 q 635 714 635 613 q 607 778 635 758 q 519 800 578 800 q 242 728 402 800 q 11 568 79 654 q 0 559 5 561 q -5 563 -5 559 q 0 572 -5 567 q 274 754 94 679 q 574 823 443 823 q 705 747 705 823 q 507 483 705 642 q 324 244 324 335 q 438 170 324 170 q 805 296 600 170 q 1150 655 1041 440 q 1159 661 1152 661 q 1195 634 1183 661 z "},"Z":{"ha":1272,"x_min":0,"x_max":1266,"o":"m 1261 204 q 699 -3 1021 -3 q 653 -3 676 -3 q 461 35 566 2 q 292 94 377 65 q 112 16 181 23 q 87 16 99 16 q 0 62 0 16 q 28 105 0 86 q 110 130 60 126 q 291 115 185 137 q 658 445 414 201 q 1001 764 910 696 q 642 792 737 792 q 347 710 413 792 q 327 657 327 686 q 363 586 327 616 q 439 559 396 559 q 509 580 477 559 q 543 627 542 602 q 551 636 544 636 q 568 621 568 636 q 564 612 568 616 q 437 549 507 549 q 352 580 387 549 q 316 657 316 612 q 350 741 316 699 q 621 819 416 819 q 1024 781 723 819 q 1125 832 1083 821 q 1168 838 1149 838 q 1209 812 1209 838 q 1187 776 1209 793 q 1122 756 1161 758 q 1053 759 1099 755 q 712 445 1014 728 q 315 110 459 208 q 525 58 420 84 q 748 29 652 29 q 1253 213 1040 26 q 1261 215 1257 216 q 1266 212 1266 215 q 1261 204 1266 208 m 1138 816 q 1127 812 1138 816 q 1073 775 1115 807 q 1124 769 1103 771 q 1177 783 1154 767 q 1198 811 1198 796 q 1177 825 1198 825 q 1138 816 1162 825 m 270 101 q 115 120 185 124 q 39 100 67 117 q 13 64 13 83 q 77 26 13 28 q 270 101 155 24 z "},"[":{"ha":842,"x_min":-14,"x_max":756,"o":"m 741 794 q 756 787 756 794 q 738 781 756 781 q 447 760 455 781 q 255 272 351 516 q 58 -287 161 28 q 52 -318 52 -306 q 75 -344 52 -341 q 349 -353 202 -348 q 367 -359 367 -355 q 350 -363 367 -363 q 0 -375 129 -375 q -14 -356 -14 -375 q 1 -298 -14 -336 q 202 189 101 -54 q 418 776 325 498 q 481 794 424 794 l 741 794 z "},"]":{"ha":781,"x_min":-48,"x_max":721,"o":"m 707 795 q 721 776 721 795 q 706 718 721 756 q 505 231 605 475 q 289 -356 382 -77 q 227 -373 283 -373 l -34 -373 q -48 -367 -48 -373 q -31 -360 -48 -360 q 249 -339 240 -360 q 454 163 352 -88 q 662 724 566 438 q 666 745 666 737 q 655 761 666 757 q 633 764 644 762 q 371 773 511 767 q 352 779 352 775 q 371 784 352 783 q 707 795 591 795 z "},"_":{"ha":880,"x_min":-7,"x_max":882,"o":"m 880 17 q 857 -5 876 -3 q 820 -3 859 -5 q 368 6 562 6 q 0 -5 152 6 q -7 3 -7 -6 q 16 30 -7 31 q 839 42 554 19 q 882 29 882 45 q 880 17 882 24 z "},"a":{"ha":686,"x_min":-123,"x_max":690,"o":"m 686 212 q 435 36 538 84 q 282 0 358 0 q 215 20 240 0 q 191 71 191 41 q 202 111 191 91 q 116 48 180 84 q -26 0 34 0 q -99 24 -72 0 q -123 79 -123 46 q 28 241 -123 170 q 259 302 157 302 q 327 293 293 302 q 368 255 374 279 q 346 244 365 248 q 326 249 327 240 q 232 289 324 287 q 67 242 158 290 q -58 112 -35 187 q -62 84 -62 98 q 9 21 -62 21 q 253 177 105 21 q 282 187 261 186 q 303 181 303 189 q 300 175 302 177 q 239 64 239 109 q 279 16 239 22 q 297 15 287 15 q 462 67 364 15 q 678 221 568 122 q 686 224 681 225 q 690 219 690 223 q 686 212 690 216 z "},"b":{"ha":711,"x_min":-35,"x_max":716,"o":"m 711 212 q 471 124 615 119 q 266 217 330 130 q 228 83 263 144 q 90 -1 179 -1 q 71 0 81 -1 q -6 46 25 5 q -35 137 -35 86 q -29 179 -35 159 q 146 500 23 347 q 333 669 251 631 q 398 688 375 688 q 424 663 424 688 q 418 633 424 650 q 50 244 376 506 q 26 119 26 168 q 119 13 26 7 q 209 77 172 16 q 243 194 243 133 q 209 262 243 251 q 202 270 202 265 q 214 289 202 279 q 237 299 226 299 q 249 292 246 299 q 466 139 323 147 q 703 221 616 131 q 711 225 707 225 q 716 220 716 224 q 711 212 716 217 m 412 661 q 394 678 412 678 q 352 666 378 678 q 194 528 269 626 q 58 265 111 420 q 259 447 155 342 q 412 661 412 599 z "},"c":{"ha":645,"x_min":-108,"x_max":650,"o":"m 645 212 q 338 36 504 90 q 128 0 226 0 q -105 109 -99 0 q 16 240 -108 174 q 227 303 134 303 q 316 259 316 303 q 308 233 316 248 q 273 219 300 219 q 257 225 257 219 q 258 229 257 227 q 272 259 272 243 q 219 292 272 292 q 193 290 207 292 q 41 232 113 280 q -38 119 -39 180 q 2 47 -38 77 q 133 12 48 12 q 373 62 243 12 q 637 221 523 119 q 645 224 640 225 q 650 219 650 223 q 645 212 650 216 z "},"d":{"ha":848,"x_min":-115,"x_max":853,"o":"m 848 212 q 405 0 603 0 q 314 114 314 0 q 316 149 314 131 q 2 0 137 0 q -83 23 -50 0 q -115 82 -115 46 q 16 240 -115 167 q 225 301 134 305 q 285 284 285 299 q 272 269 285 278 q 249 261 259 261 q 238 267 241 261 q 189 287 229 286 q 56 242 129 290 q -46 109 -26 187 q -50 86 -50 97 q -22 35 -50 53 q 37 18 2 18 q 318 165 139 18 q 443 450 339 297 q 667 667 550 608 q 727 686 706 686 q 750 663 750 686 q 742 629 750 650 q 610 437 716 561 q 377 202 504 314 q 361 112 361 153 q 426 14 361 19 q 601 60 492 9 q 840 221 726 119 q 849 224 843 225 q 853 219 853 223 q 848 212 853 216 m 731 635 q 737 660 737 650 q 720 676 737 676 q 686 666 708 676 q 498 470 589 619 q 383 221 428 356 q 731 635 671 481 z "},"e":{"ha":664,"x_min":-100,"x_max":669,"o":"m 664 212 q 357 36 523 90 q 147 0 246 0 q -96 109 -87 0 q 18 238 -100 172 q 233 302 132 302 q 333 258 333 302 q 323 233 333 247 q 235 185 302 204 q 92 166 169 166 q -9 175 38 166 q -30 119 -29 147 q 9 47 -31 76 q 152 12 57 12 q 392 62 263 12 q 656 221 542 119 q 664 224 659 225 q 669 219 669 223 q 664 212 669 216 m 280 230 q 292 256 292 243 q 227 292 292 292 q 196 290 213 292 q 88 254 143 283 q -2 185 29 224 q 84 177 41 177 q 210 194 151 177 q 280 230 261 210 z "},"f":{"ha":638,"x_min":-115,"x_max":643,"o":"m 638 212 q 361 81 511 89 q 116 164 210 73 q 125 83 125 124 q 71 -103 125 -22 q -43 -179 18 -179 q -74 -173 -59 -179 q -115 -86 -115 -154 q -52 152 -115 -2 q 143 484 18 323 q 331 667 256 629 q 394 688 371 688 q 420 661 420 688 q 415 633 420 649 q 41 239 372 504 q 10 177 24 204 q -81 -107 -81 -17 q -41 -169 -81 -164 q 62 -93 15 -175 q 108 73 108 -14 q 65 189 108 152 q 62 198 62 193 q 71 215 62 206 q 92 224 81 224 q 106 216 101 224 q 364 92 203 84 q 513 137 433 96 q 631 221 584 174 q 638 225 634 225 q 643 220 643 224 q 638 212 643 217 m 409 661 q 391 678 409 678 q 348 666 376 678 q 53 265 227 611 q 256 447 151 342 q 409 661 409 599 z "},"g":{"ha":669,"x_min":-160,"x_max":680,"o":"m 675 212 q 214 -36 536 80 q 97 -216 157 -141 q -82 -317 15 -317 q -143 -298 -119 -317 q -160 -260 -160 -284 q -101 -164 -160 -213 q 113 -56 -29 -103 q 181 -33 148 -45 q 219 118 219 67 q 128 51 184 85 q -16 0 43 0 q -88 27 -61 0 q -113 84 -113 51 q -109 107 -113 96 q 64 257 -79 198 q 288 301 187 307 q 332 286 332 299 q 321 272 332 280 q 303 265 310 265 q 293 268 297 265 q 234 286 275 285 q 75 246 160 289 q -46 122 -24 196 q -51 91 -51 106 q 14 22 -51 22 q 157 83 73 22 q 242 171 232 138 q 278 187 246 187 q 293 180 292 187 q 223 -19 299 129 q 667 221 519 88 q 675 224 671 225 q 680 219 680 223 q 675 212 680 216 m 175 -50 q 132 -64 149 -58 q -52 -152 18 -100 q -119 -244 -119 -202 q -103 -277 -119 -263 q -60 -291 -87 -291 q 67 -224 6 -291 q 175 -50 132 -154 z "},"h":{"ha":830,"x_min":-34,"x_max":835,"o":"m 830 212 q 390 0 585 0 q 290 77 290 0 q 306 142 290 105 q 346 219 314 161 q 370 276 370 263 q 358 287 370 287 q 342 284 352 287 q 168 187 275 265 q 13 11 41 94 q -1 -3 10 -3 q -24 13 -14 -3 q -33 94 -34 29 q -19 209 -32 161 q 143 507 23 365 q 323 664 239 619 q 390 687 367 687 q 416 661 416 687 q 411 633 416 649 q 290 458 386 559 q 124 305 235 400 q 35 219 38 231 q 21 136 25 187 q 16 70 19 103 q 202 226 96 156 q 386 301 318 301 q 428 276 428 301 q 353 138 428 246 q 323 63 323 94 q 398 11 323 14 q 583 59 473 8 q 822 221 706 117 q 830 224 825 225 q 835 219 835 223 q 830 212 835 216 m 404 661 q 386 678 404 678 q 344 666 371 678 q 183 524 259 625 q 45 251 98 412 q 253 436 138 318 q 404 661 404 590 z "},"i":{"ha":532,"x_min":-65,"x_max":538,"o":"m 269 465 q 272 455 272 460 q 264 446 272 447 q 250 450 257 444 q 186 478 232 466 q 162 497 162 485 q 175 518 162 507 q 198 528 187 528 q 269 465 236 528 m 532 212 q 90 0 287 0 q -17 22 25 0 q -65 99 -65 48 q 13 256 -65 162 q 24 278 18 267 q 73 301 35 293 q 107 299 107 309 q 96 281 107 293 q -14 90 -14 157 q 103 16 -14 16 q 301 69 190 16 q 525 221 417 124 q 532 224 528 225 q 538 219 538 223 q 532 212 538 216 z "},"j":{"ha":412,"x_min":-441,"x_max":416,"o":"m 234 465 q 238 455 238 460 q 230 446 238 447 q 216 450 223 444 q 152 478 198 466 q 128 497 128 485 q 140 518 128 507 q 164 528 153 528 q 234 465 202 528 m 412 212 q 166 71 321 126 q -71 2 47 37 q -196 -221 -151 -157 q -348 -312 -260 -312 q -435 -259 -413 -312 q -441 -230 -441 -246 q -370 -117 -441 -175 q -155 -7 -293 -52 q -114 6 -138 -1 q 18 259 -58 166 q 24 278 22 268 q 71 299 31 291 q 96 303 88 303 q 105 297 105 303 q 75 254 105 288 q -62 20 29 204 q 181 92 130 73 q 404 221 317 143 q 412 224 407 225 q 416 219 416 223 q 412 212 416 216 m -120 -13 q -327 -117 -251 -58 q -403 -230 -403 -175 q -399 -251 -403 -241 q -339 -297 -384 -297 q -223 -227 -278 -297 q -120 -13 -171 -160 z "},"k":{"ha":783,"x_min":-34,"x_max":788,"o":"m 783 212 q 341 0 530 -7 q 220 95 220 5 q 239 166 220 130 q 275 185 249 185 q 293 183 282 185 q 311 180 304 180 q 383 207 348 180 q 418 258 418 234 q 373 285 418 285 q 165 202 287 285 q 13 11 31 112 q -1 -3 10 -3 q -24 13 -14 -3 q -33 94 -34 29 q -19 209 -32 161 q 143 507 23 365 q 323 664 239 619 q 390 687 367 687 q 416 661 416 687 q 411 633 416 649 q 291 458 386 559 q 124 305 235 400 q 35 219 38 231 q 21 136 25 187 q 17 70 19 103 q 183 227 71 160 q 390 294 295 294 q 411 293 400 294 q 453 265 453 289 q 407 206 453 237 q 294 165 358 173 q 269 95 269 134 q 361 14 269 21 q 536 60 426 9 q 775 221 661 119 q 783 224 779 225 q 788 219 788 223 q 783 212 788 216 m 402 657 q 383 675 402 675 q 340 662 367 675 q 45 253 151 570 q 250 436 139 323 q 402 657 402 590 z "},"l":{"ha":502,"x_min":-35,"x_max":507,"o":"m 502 212 q 60 0 257 0 q -35 115 -35 0 q -24 181 -35 151 q 129 472 31 334 q 314 661 225 607 q 386 689 361 689 q 407 633 425 689 q 69 268 367 515 q 24 95 24 155 q 81 14 24 18 q 255 60 145 9 q 494 221 380 119 q 502 224 498 225 q 507 219 507 223 q 502 212 507 216 m 394 640 q 397 659 397 651 q 381 676 397 676 q 340 663 367 676 q 80 293 209 599 q 290 495 202 397 q 394 640 379 592 z "},"m":{"ha":1170,"x_min":-126,"x_max":1174,"o":"m 1170 212 q 906 45 1044 103 q 714 -2 794 -2 q 678 3 692 -2 q 636 54 636 16 q 707 207 636 100 q 728 253 728 240 q 710 267 728 267 q 681 263 699 267 q 448 138 598 240 q 293 9 305 41 q 264 -3 289 -3 q 226 27 221 -3 q 274 119 229 51 q 340 215 306 167 q 360 257 360 245 q 346 268 360 268 q 277 246 327 268 q 70 129 187 206 q -74 14 -46 52 q -107 0 -84 0 q -126 16 -126 0 q -75 124 -125 43 q 7 243 -31 196 q 15 264 11 253 q 60 285 23 277 q 96 282 96 292 q 84 266 96 276 q 1 177 43 230 q -60 60 -52 108 q -57 56 -59 58 q -47 60 -54 56 q -31 71 -40 64 q 98 158 -4 95 q 300 267 223 236 q 377 286 348 286 q 407 265 407 286 q 390 225 407 249 q 303 69 312 107 q 301 62 301 65 q 306 55 301 55 q 362 89 319 55 q 672 270 520 214 q 747 286 718 286 q 779 264 779 286 q 766 228 779 250 q 698 62 698 112 q 754 20 698 20 q 940 75 825 20 q 1162 221 1063 133 q 1170 224 1165 225 q 1174 219 1174 223 q 1170 212 1174 216 z "},"n":{"ha":832,"x_min":-126,"x_max":837,"o":"m 832 213 q 566 46 707 105 q 366 -1 450 -1 q 293 49 293 -1 q 370 208 293 109 q 393 253 393 237 q 372 268 393 268 q 337 263 358 268 q 83 138 229 229 q -76 14 -54 53 q -98 2 -83 3 q -120 9 -114 1 q -126 24 -126 14 q 5 243 -126 86 q 18 264 12 253 q 58 285 28 277 q 80 288 71 288 q 92 281 92 288 q 82 266 92 274 q -54 70 -39 162 q -52 64 -55 65 q -43 66 -49 63 q -28 75 -36 69 q 328 270 137 203 q 403 286 375 286 q 435 264 435 286 q 422 228 435 250 q 354 62 354 112 q 409 20 354 20 q 599 75 482 20 q 824 223 726 134 q 832 225 828 226 q 837 221 837 225 q 832 213 837 217 z "},"o":{"ha":700,"x_min":-105,"x_max":705,"o":"m 700 210 q 460 124 606 120 q 293 203 363 126 q 215 65 295 130 q 15 0 130 -4 q -105 88 -105 5 q 18 245 -105 179 q 223 300 124 300 q 246 299 234 300 q 272 288 272 297 q 251 274 272 274 q 248 275 249 274 q 192 288 225 288 q 48 241 119 286 q -40 130 -25 194 q -43 102 -43 115 q 21 24 -43 41 q 61 19 39 19 q 242 110 178 19 q 265 179 265 143 q 245 229 265 223 q 240 233 240 230 q 267 250 240 242 q 305 236 295 259 q 363 172 322 202 q 462 136 411 139 q 692 220 604 129 q 700 223 695 223 q 705 218 705 222 q 700 210 705 215 z "},"p":{"ha":724,"x_min":-267,"x_max":729,"o":"m 724 212 q 181 0 479 0 q 82 8 134 0 q -1 46 -1 20 q 13 60 -1 52 q 37 67 26 67 q 44 64 43 67 q 103 20 60 23 q 279 96 192 15 q 360 235 360 171 q 310 284 360 280 q 293 284 301 284 q 94 206 204 284 q -54 77 50 174 q -153 -104 -98 35 q -210 -268 -193 -203 q -243 -308 -217 -298 q -263 -310 -257 -313 q -265 -300 -267 -307 q -7 228 -187 -48 q 25 270 6 244 q 54 302 46 302 q 69 297 60 302 q 85 275 85 286 q 72 258 85 265 q -35 113 64 253 q 315 301 167 301 q 357 297 336 301 q 417 241 417 289 q 346 117 417 185 q 170 16 270 45 q 716 221 483 11 q 724 224 719 225 q 729 219 729 223 q 724 212 729 216 z "},"q":{"ha":747,"x_min":-130,"x_max":752,"o":"m 747 211 q 441 59 614 83 q 297 67 378 50 q 216 -194 303 -62 q 67 -318 135 -318 q 41 -308 52 -318 q 26 -261 26 -295 q 84 -70 26 -191 q 201 109 140 46 q 111 45 175 82 q -33 -3 27 -3 q -106 22 -79 -3 q -130 77 -130 44 q 30 242 -130 169 q 272 299 170 304 q 316 284 316 296 q 305 269 316 277 q 287 262 294 262 q 276 266 281 262 q 218 284 258 282 q 57 239 146 287 q -65 109 -43 185 q -69 81 -69 95 q -3 18 -69 18 q 142 80 57 18 q 228 168 220 136 q 276 183 232 183 q 291 179 291 183 q 289 177 291 178 q 132 -46 212 98 q 51 -264 51 -194 q 79 -304 51 -304 q 196 -204 126 -304 q 269 -5 269 -99 q 252 67 269 36 q 251 74 251 70 q 282 98 251 98 q 299 94 291 98 q 446 77 361 68 q 616 132 529 85 q 739 221 691 171 q 747 223 743 224 q 752 219 752 223 q 747 211 752 215 z "},"r":{"ha":576,"x_min":-22,"x_max":581,"o":"m 576 212 q 150 -2 329 -2 q 114 0 132 -2 q 57 48 57 6 q 175 220 57 112 q 150 219 162 219 q 81 232 113 219 q 45 257 51 244 q -6 204 30 238 q -17 202 -13 198 q -15 213 -22 207 q 38 278 33 256 q 36 290 39 281 q 33 303 33 299 q 43 320 33 313 q 60 325 50 325 q 87 304 84 325 q 69 268 90 286 q 97 240 68 252 q 157 230 124 230 q 200 238 185 230 q 219 237 206 242 q 236 222 231 232 q 230 202 238 215 q 209 183 221 189 q 155 128 191 175 q 113 43 113 74 q 138 15 113 20 q 167 12 151 12 q 348 67 240 12 q 568 221 461 124 q 576 224 572 225 q 581 219 581 223 q 576 212 581 216 z "},"s":{"ha":514,"x_min":-92,"x_max":519,"o":"m 514 212 q 52 0 261 -7 q -90 50 -81 4 q -77 65 -92 56 q -52 74 -63 74 q -46 70 -47 74 q 18 17 -36 16 q 94 86 89 19 q 77 170 97 115 q 56 254 56 227 q 56 268 56 261 q -7 206 19 227 q -22 201 -18 197 q -20 211 -28 204 q 53 292 42 265 q 67 332 54 307 q 84 339 75 339 q 106 321 105 339 q 85 285 107 301 q 83 270 83 278 q 115 185 83 245 q 148 100 147 126 q 126 47 149 71 q 71 13 103 22 q 88 12 79 12 q 275 65 164 12 q 506 221 397 122 q 514 224 509 225 q 519 219 519 223 q 514 212 519 216 z "},"t":{"ha":511,"x_min":-50,"x_max":517,"o":"m 511 212 q 79 -1 265 -1 q 48 1 63 -1 q -50 98 -50 15 q 133 388 -50 202 q -20 341 15 375 q -28 337 -24 337 q -39 352 -39 337 q -31 367 -39 361 q 149 403 20 397 q 158 412 152 407 q 175 434 166 423 q 217 456 189 449 q 247 462 236 462 q 246 439 270 462 q 210 405 229 423 q 354 399 284 405 q 363 394 363 398 q 354 391 362 390 q 196 392 266 395 q 0 91 0 198 q 79 14 0 20 q 263 60 151 9 q 504 221 388 117 q 511 224 507 225 q 517 219 517 223 q 511 212 517 216 z "},"u":{"ha":798,"x_min":-90,"x_max":803,"o":"m 798 212 q 541 44 668 100 q 361 -1 438 -1 q 280 58 280 -1 q 341 185 280 115 q 222 88 283 129 q -1 0 100 5 q -90 54 -90 -5 q -13 211 -90 112 q 9 253 4 232 q 56 283 15 278 q 84 277 84 287 q 77 263 84 272 q 13 179 48 230 q -43 54 -43 96 q -6 15 -43 20 q 10 14 1 14 q 212 95 92 14 q 371 240 320 168 q 416 284 404 288 q 443 268 443 277 q 439 259 443 265 q 411 223 428 246 q 318 50 318 102 q 373 12 318 12 q 564 70 445 12 q 790 221 690 132 q 798 224 793 225 q 803 219 803 223 q 798 212 803 216 z "},"v":{"ha":667,"x_min":-50,"x_max":671,"o":"m 667 212 q 547 143 620 168 q 430 122 484 122 q 329 137 373 124 q 234 39 298 78 q 96 0 168 0 q 50 5 73 0 q -22 45 6 14 q -50 116 -50 76 q -23 191 -50 155 q -6 220 -16 200 q 39 249 -2 244 q 69 242 69 253 q 61 229 69 236 q 1 100 1 167 q 69 12 1 30 q 98 9 83 9 q 210 49 153 9 q 295 149 268 89 q 215 250 215 187 q 232 294 215 277 q 280 310 250 312 q 347 242 335 306 q 335 149 356 196 q 432 134 378 135 q 548 155 485 133 q 659 221 619 180 q 667 225 662 225 q 671 220 671 224 q 667 212 671 217 m 310 246 q 270 294 306 294 q 257 291 263 294 q 231 249 231 278 q 300 163 231 198 q 310 246 315 204 z "},"w":{"ha":990,"x_min":-85,"x_max":995,"o":"m 990 212 q 870 143 944 167 q 753 122 807 121 q 606 164 663 126 q 492 52 560 98 q 341 0 414 0 q 243 73 243 0 q 286 184 243 121 q 146 51 224 101 q 7 0 69 0 q -85 66 -85 0 q 7 242 -85 130 q 12 261 10 251 q 55 282 18 274 q 78 286 69 286 q 90 279 90 286 q 79 262 90 274 q -45 60 -45 128 q 12 14 -45 14 q 144 65 70 14 q 303 224 225 121 q 322 266 310 242 q 360 262 339 285 q 364 227 378 242 q 341 197 355 216 q 288 66 288 99 q 330 14 288 26 q 353 12 341 12 q 481 60 408 12 q 597 171 554 107 q 545 261 545 211 q 580 308 545 303 q 597 309 589 309 q 646 263 646 309 q 619 185 646 229 q 756 134 667 135 q 872 156 809 134 q 982 221 942 181 q 990 225 986 225 q 995 220 995 224 q 990 212 995 217 m 631 261 q 609 293 631 293 q 585 261 585 293 q 611 194 585 227 q 631 261 631 232 z "},"x":{"ha":707,"x_min":-207,"x_max":711,"o":"m 706 212 q 263 0 468 7 q 88 92 151 -3 q -193 -26 -79 -3 q -207 -25 -207 -29 q -195 -19 -205 -22 q 81 101 -73 11 q 37 249 41 168 q -1 213 18 230 q -12 210 -7 207 q -10 220 -16 214 q 33 274 26 259 q 75 301 48 307 q 93 277 92 297 q 117 123 82 202 q 271 232 206 178 q 342 307 335 285 q 380 319 346 321 q 392 312 392 318 q 375 289 392 303 q 122 111 268 198 q 273 11 172 11 q 461 61 354 11 q 698 221 583 117 q 706 224 701 225 q 711 219 711 223 q 706 212 711 216 z "},"y":{"ha":703,"x_min":-110,"x_max":707,"o":"m 703 212 q 268 -20 537 53 q 219 -33 244 -26 q 119 -218 164 -155 q -39 -314 48 -314 q -110 -253 -110 -314 q -40 -138 -110 -198 q 199 -26 46 -64 q 237 86 236 83 q 292 184 261 146 q -11 0 123 0 q -92 51 -92 0 q 9 242 -92 109 q 15 261 12 251 q 59 282 21 274 q 94 280 94 290 q 83 262 94 274 q -52 52 -52 111 q -10 14 -52 20 q 146 71 51 8 q 333 256 250 140 q 348 279 341 268 q 385 292 361 292 q 418 281 418 292 q 389 247 418 270 q 299 133 341 210 q 226 -19 276 94 q 695 221 533 55 q 703 224 698 225 q 707 219 707 223 q 703 212 707 216 m 193 -43 q -9 -149 63 -87 q -73 -251 -73 -202 q -26 -299 -73 -299 q 96 -223 35 -299 q 193 -43 155 -151 z "},"z":{"ha":706,"x_min":-95,"x_max":711,"o":"m 706 212 q 453 37 560 85 q 295 0 375 1 q 108 35 237 -1 q 69 45 89 40 q -46 3 12 3 q -95 30 -95 3 q -54 70 -95 57 q 7 79 -25 79 q 75 73 38 79 q 88 88 82 81 q 318 282 212 238 q 168 273 249 262 q 122 277 141 277 q 56 261 84 277 q -3 213 38 250 q -14 210 -10 206 q -13 220 -20 214 q 52 275 36 265 q 134 297 88 297 q 179 293 155 297 q 350 301 267 280 q 362 303 356 303 q 389 281 389 303 q 373 262 389 267 q 223 183 301 244 q 96 68 189 157 q 210 35 105 66 q 322 18 271 16 q 698 221 479 23 q 707 224 701 225 q 711 219 711 223 q 706 212 711 216 m 50 50 q -46 58 -13 64 q -84 29 -84 51 q -46 10 -84 10 q 50 50 1 10 z "},"{":{"ha":817,"x_min":0,"x_max":771,"o":"m 770 761 q 762 746 771 754 q 745 737 752 737 q 737 743 739 737 q 717 772 733 759 q 668 786 696 789 q 433 662 543 775 q 281 358 314 539 q 161 225 264 264 q 193 142 193 193 q 160 29 193 92 q 103 -177 103 -85 q 155 -312 103 -263 q 301 -361 207 -361 q 347 -358 323 -361 q 353 -362 352 -358 q 348 -367 354 -367 q 281 -373 314 -373 q 120 -323 181 -373 q 57 -181 57 -271 q 116 9 57 -95 q 164 153 164 96 q 139 217 164 193 q 44 208 92 204 q 0 236 0 212 q 62 265 0 264 q 148 237 111 265 q 242 352 228 266 q 411 679 272 551 q 691 801 540 798 q 750 786 727 802 q 770 761 768 774 m 122 229 q 50 249 88 249 q 19 235 19 249 q 35 225 19 227 q 122 229 83 221 z "},"|":{"ha":45,"x_min":-3,"x_max":47,"o":"m 45 -257 q 46 -301 47 -295 q 20 -333 43 -325 q 10 -335 14 -335 q -3 -301 -3 -335 q 0 -260 -3 -334 q 14 509 14 192 q 7 917 14 747 q 27 935 6 935 q 42 918 43 935 q 33 288 33 481 q 45 -257 33 -7 z "},"}":{"ha":892,"x_min":-1,"x_max":797,"o":"m 753 249 q 797 221 797 246 q 736 193 797 193 q 649 221 686 193 q 556 105 569 191 q 372 -238 525 -94 q 79 -377 230 -373 q 20 -362 43 -377 q 0 -336 2 -350 q 8 -321 -1 -329 q 26 -313 17 -313 q 33 -319 31 -313 q 53 -348 37 -335 q 102 -362 73 -364 q 351 -221 227 -351 q 516 99 483 -82 q 636 232 534 193 q 605 315 605 265 q 636 428 605 365 q 689 611 689 531 q 633 741 689 695 q 477 786 576 786 q 423 783 451 786 q 417 786 418 783 q 422 792 416 791 q 502 799 463 799 q 668 754 605 799 q 736 620 736 707 q 684 454 736 554 q 633 304 633 354 q 659 240 633 264 q 753 249 705 253 m 762 232 q 675 228 714 236 q 747 208 709 208 q 779 222 779 208 q 762 232 779 230 z "},"~":{"ha":630,"x_min":-9,"x_max":562,"o":"m 555 832 q 482 770 494 779 q 361 728 420 728 q 295 742 327 728 q 107 796 159 796 q 5 763 56 796 q -7 762 -5 757 q 0 771 -9 765 q 128 822 76 822 q 276 783 186 822 q 375 761 326 761 q 549 838 464 761 q 559 839 555 842 q 555 832 562 837 z "},"":{"ha":959,"x_min":-6,"x_max":886,"o":"m 877 712 q 850 656 886 693 q 523 240 644 444 q 673 249 569 242 q 682 246 682 250 q 671 238 682 239 l 513 223 q 463 124 484 172 q 606 132 509 126 q 616 129 616 133 q 604 121 616 122 l 456 107 q 412 -81 412 2 q 415 -121 412 -102 q 397 -141 416 -128 q 367 -155 378 -155 q 361 -151 362 -155 q 360 -124 360 -138 q 430 105 360 -39 q 320 96 354 97 q 282 92 267 93 q 259 113 264 93 q 257 121 257 118 q 293 127 257 130 q 439 123 365 120 q 494 221 464 170 q 386 212 419 213 q 348 208 333 210 q 325 229 330 210 q 323 238 323 234 q 360 244 323 247 q 506 240 432 236 q 802 649 630 443 q 533 423 689 521 q 278 322 374 322 q 212 347 233 322 q 194 396 194 367 q 354 610 194 489 q 449 745 449 682 q 426 793 449 777 q 359 810 403 810 q 169 763 277 810 q 10 655 58 714 q -1 652 5 647 q 0 664 -6 657 q 196 791 67 739 q 411 840 317 840 q 507 777 507 840 q 377 610 507 704 q 238 422 238 508 q 251 382 238 397 q 312 361 270 361 q 570 464 416 361 q 823 722 735 576 q 851 726 828 729 q 877 712 874 721 z "},"":{"ha":516,"x_min":0,"x_max":0,"o":""},"":{"ha":1847,"x_min":0,"x_max":1729,"o":"m 1566 346 q 1306 299 1457 299 q 950 397 1062 299 q 909 470 909 433 q 1024 583 909 535 q 1280 630 1135 630 q 1553 562 1447 630 l 1543 558 q 1378 593 1462 593 q 1269 573 1313 593 q 1225 528 1225 553 q 1245 498 1225 512 q 1410 464 1299 464 q 1503 471 1455 464 q 1610 513 1566 481 q 1654 589 1654 546 q 1461 745 1654 677 l 1469 754 q 1663 656 1593 718 q 1729 528 1729 597 q 1566 346 1729 416 m 1149 791 q 697 692 884 791 q 511 455 511 594 q 697 218 511 316 q 1149 120 884 120 q 1537 191 1381 120 q 1690 363 1690 261 l 1697 369 q 1699 348 1699 360 q 1522 122 1699 223 q 957 0 1312 0 q 276 128 557 0 q 0 426 0 253 q 264 712 0 593 q 933 833 534 833 q 1381 781 1176 833 l 1374 771 q 1149 791 1272 791 z "}}}
